<svg width="257" height="257" viewBox="0 0 257 257" fill="none" xmlns="http://www.w3.org/2000/svg">
<path d="M131.409 8.72727L130.205 9.06818C130.129 8.86742 130.017 8.67235 129.869 8.48295C129.725 8.28977 129.528 8.13068 129.278 8.00568C129.028 7.88068 128.708 7.81818 128.318 7.81818C127.784 7.81818 127.339 7.94129 126.983 8.1875C126.631 8.42992 126.455 8.73864 126.455 9.11364C126.455 9.44697 126.576 9.71023 126.818 9.90341C127.061 10.0966 127.439 10.2576 127.955 10.3864L129.25 10.7045C130.03 10.8939 130.612 11.1837 130.994 11.5739C131.377 11.9602 131.568 12.4583 131.568 13.0682C131.568 13.5682 131.424 14.0152 131.136 14.4091C130.852 14.803 130.455 15.1136 129.943 15.3409C129.432 15.5682 128.837 15.6818 128.159 15.6818C127.269 15.6818 126.532 15.4886 125.949 15.1023C125.366 14.7159 124.996 14.1515 124.841 13.4091L126.114 13.0909C126.235 13.5606 126.464 13.9129 126.801 14.1477C127.142 14.3826 127.587 14.5 128.136 14.5C128.761 14.5 129.258 14.3674 129.625 14.1023C129.996 13.8333 130.182 13.5114 130.182 13.1364C130.182 12.8333 130.076 12.5795 129.864 12.375C129.652 12.1667 129.326 12.0114 128.886 11.9091L127.432 11.5682C126.633 11.3788 126.045 11.0852 125.67 10.6875C125.299 10.286 125.114 9.78409 125.114 9.18182C125.114 8.68939 125.252 8.25379 125.528 7.875C125.809 7.49621 126.189 7.19886 126.67 6.98295C127.155 6.76705 127.705 6.65909 128.318 6.65909C129.182 6.65909 129.86 6.84848 130.352 7.22727C130.848 7.60606 131.201 8.10606 131.409 8.72727Z" fill="black"/>
<path d="M140.564 16.3284C139.75 16.2428 139.07 15.9771 138.522 15.5311C137.975 15.085 137.579 14.5082 137.333 13.8007C137.088 13.0931 137.01 12.3061 137.101 11.4396C137.194 10.5581 137.438 9.79725 137.833 9.15699C138.232 8.51335 138.743 8.03198 139.367 7.71287C139.995 7.39039 140.701 7.27033 141.484 7.35268C142.095 7.41682 142.633 7.58764 143.099 7.86514C143.565 8.14264 143.933 8.50125 144.203 8.94096C144.473 9.38068 144.617 9.87573 144.635 10.4261L143.301 10.2859C143.241 9.87971 143.052 9.50561 142.734 9.16365C142.42 8.81832 141.969 8.61477 141.381 8.553C140.861 8.49836 140.391 8.58607 139.971 8.81613C139.555 9.04281 139.212 9.38953 138.942 9.8563C138.676 10.3197 138.509 10.8791 138.44 11.5346C138.369 12.2052 138.413 12.8001 138.572 13.3196C138.735 13.8394 138.995 14.2572 139.354 14.573C139.717 14.8892 140.162 15.075 140.69 15.1304C141.036 15.1668 141.357 15.1396 141.653 15.0488C141.948 14.9579 142.205 14.8098 142.425 14.6043C142.644 14.3989 142.812 14.1423 142.928 13.8346L144.262 13.9747C144.133 14.4792 143.898 14.921 143.557 15.3004C143.221 15.6763 142.797 15.9593 142.285 16.1493C141.778 16.336 141.204 16.3957 140.564 16.3284Z" fill="black"/>
<path d="M150.26 17.6007L152.075 9.06419L153.342 9.33353L153.068 10.6229L153.157 10.6418C153.402 10.2525 153.756 9.96963 154.22 9.7932C154.683 9.61677 155.171 9.58289 155.682 9.69157C155.778 9.71205 155.898 9.7395 156.042 9.77391C156.186 9.80833 156.294 9.83712 156.366 9.86029L156.083 11.1941C156.041 11.1736 155.942 11.1352 155.788 11.0791C155.638 11.0201 155.476 10.9721 155.302 10.9351C154.887 10.8469 154.498 10.8552 154.134 10.96C153.776 11.062 153.47 11.2447 153.216 11.5084C152.967 11.7691 152.802 12.0922 152.72 12.4775L151.572 17.8795L150.26 17.6007Z" fill="black"/>
<path d="M163.147 21.1333C162.397 20.8898 161.798 20.4979 161.348 19.9575C160.902 19.4182 160.625 18.7765 160.516 18.0322C160.411 17.2892 160.498 16.4889 160.776 15.6315C161.057 14.7669 161.459 14.0631 161.982 13.5201C162.509 12.9783 163.111 12.6203 163.789 12.4463C164.47 12.2734 165.185 12.3087 165.935 12.5522C166.684 12.7956 167.282 13.187 167.728 13.7263C168.178 14.2667 168.454 14.9102 168.558 15.6569C168.666 16.4047 168.579 17.211 168.298 18.0756C168.02 18.933 167.618 19.6308 167.092 20.169C166.57 20.7084 165.969 21.0646 165.287 21.2374C164.609 21.4115 163.896 21.3768 163.147 21.1333ZM163.519 19.9877C164.088 20.1727 164.604 20.1789 165.066 20.0065C165.528 19.8341 165.925 19.5388 166.256 19.1206C166.587 18.7025 166.843 18.216 167.023 17.6612C167.203 17.1064 167.283 16.5608 167.262 16.0243C167.241 15.4878 167.095 15.0122 166.824 14.5974C166.552 14.1826 166.132 13.8827 165.563 13.6978C164.993 13.5128 164.477 13.5084 164.014 13.6844C163.55 13.8604 163.152 14.1593 162.82 14.5811C162.488 15.0028 162.232 15.4911 162.051 16.0459C161.871 16.6007 161.792 17.1445 161.814 17.6774C161.836 18.2103 161.983 18.6823 162.256 19.0935C162.529 19.5047 162.95 19.8028 163.519 19.9877Z" fill="black"/>
<path d="M179.713 14.8701L174.98 25.5005L173.755 24.9551L178.488 14.3247L179.713 14.8701Z" fill="black"/>
<path d="M191.31 20.8458L185.492 30.9232L184.331 30.2528L190.149 20.1754L191.31 20.8458Z" fill="black"/>
<path d="M203.635 44.3404C203.095 43.8537 202.741 43.2876 202.573 42.642C202.407 41.9935 202.433 41.3136 202.651 40.6022C202.871 39.8879 203.29 39.1874 203.909 38.5005C204.522 37.8193 205.171 37.3333 205.856 37.0427C206.541 36.752 207.214 36.6577 207.877 36.7597C208.539 36.8618 209.144 37.1587 209.69 37.6504C210.112 38.0306 210.382 38.4013 210.5 38.7626C210.624 39.1235 210.67 39.451 210.64 39.7449C210.615 40.0386 210.589 40.2747 210.561 40.4531L210.645 40.5292L213.519 37.337L214.516 38.2343L206.73 46.8818L205.767 46.015L206.664 45.0185L206.546 44.912C206.366 44.9643 206.128 45.0198 205.831 45.0783C205.536 45.1339 205.2 45.1194 204.822 45.0345C204.448 44.9469 204.052 44.7155 203.635 44.3404ZM204.577 43.5669C204.976 43.9268 205.408 44.1268 205.871 44.1669C206.337 44.2042 206.809 44.1016 207.287 43.8593C207.768 43.6142 208.229 43.2467 208.67 42.7569C209.106 42.2728 209.417 41.7858 209.603 41.2959C209.792 40.8032 209.84 40.3314 209.746 39.8803C209.655 39.4264 209.407 39.017 209.002 38.652C208.58 38.2718 208.13 38.0634 207.654 38.0267C207.182 37.9897 206.71 38.0922 206.237 38.3342C205.77 38.576 205.331 38.9249 204.92 39.3809C204.505 39.8425 204.197 40.3253 203.999 40.8292C203.805 41.3329 203.747 41.8214 203.826 42.2947C203.91 42.7677 204.16 43.1918 204.577 43.5669Z" fill="black"/>
<path d="M212.188 52.841C211.661 52.2555 211.338 51.6163 211.219 50.9234C211.102 50.2334 211.182 49.5389 211.46 48.84C211.741 48.144 212.216 47.4943 212.886 46.8911C213.562 46.2828 214.262 45.8743 214.986 45.6655C215.713 45.4595 216.414 45.4506 217.088 45.6388C217.764 45.8298 218.366 46.2181 218.893 46.8036C219.421 47.3891 219.743 48.0269 219.859 48.717C219.978 49.4098 219.896 50.1056 219.613 50.8042C219.332 51.5056 218.854 52.1604 218.178 52.7687C217.508 53.3719 216.811 53.7753 216.087 53.9787C215.366 54.185 214.667 54.1926 213.99 54.0016C213.316 53.8134 212.715 53.4265 212.188 52.841ZM213.083 52.035C213.484 52.4798 213.927 52.7431 214.414 52.8249C214.9 52.9067 215.392 52.8493 215.887 52.6527C216.383 52.456 216.848 52.1626 217.281 51.7722C217.715 51.3819 218.057 50.9492 218.307 50.4742C218.557 49.9992 218.668 49.5142 218.64 49.0192C218.613 48.5242 218.399 48.0544 217.998 47.6096C217.598 47.1649 217.153 46.9028 216.663 46.8235C216.174 46.7443 215.68 46.8042 215.182 47.0034C214.683 47.2025 214.217 47.4973 213.783 47.8876C213.35 48.2779 213.01 48.7093 212.762 49.1818C212.515 49.6543 212.406 50.1368 212.437 50.6292C212.467 51.1217 212.683 51.5902 213.083 52.035Z" fill="black"/>
<path d="M217.982 59.4142L223.479 52.1332L224.308 53.2731L220.011 58.7267L220.064 58.8003L226.565 56.3805L227.407 57.5389L223.102 62.9423L223.155 63.0159L229.651 60.6278L230.479 61.7678L221.856 64.7463L221.081 63.6799L225.383 58.1946L225.303 58.0843L218.757 60.4806L217.982 59.4142Z" fill="black"/>
<path d="M229.692 67.269L225.145 69.894L224.474 68.7327L232.033 64.3691L232.68 65.491L231.499 66.1728L231.556 66.2712C232.042 66.2268 232.506 66.3177 232.947 66.5441C233.392 66.7686 233.779 67.1662 234.108 67.737C234.404 68.2488 234.557 68.7571 234.569 69.2621C234.584 69.7653 234.441 70.2456 234.141 70.7032C233.844 71.1588 233.375 71.5722 232.732 71.9434L227.929 74.7162L227.259 73.5549L231.982 70.8276C232.576 70.4848 232.95 70.0636 233.103 69.564C233.259 69.0624 233.182 68.5427 232.872 68.0047C232.658 67.634 232.386 67.3491 232.057 67.1499C231.729 66.9541 231.363 66.8615 230.958 66.8722C230.553 66.8829 230.131 67.0152 229.692 67.269Z" fill="black"/>
<path d="M243.31 94.2549L242.613 93.2147C242.781 93.0806 242.932 92.914 243.066 92.715C243.205 92.5184 243.296 92.2819 243.337 92.0055C243.379 91.7291 243.34 91.4054 243.219 91.0344C243.054 90.5264 242.799 90.1412 242.455 89.8786C242.116 89.6185 241.768 89.5464 241.411 89.6622C241.094 89.7653 240.881 89.9619 240.772 90.2521C240.664 90.5424 240.627 90.9524 240.664 91.4821L240.762 92.8125C240.823 93.6131 240.727 94.2557 240.474 94.7401C240.225 95.2233 239.81 95.5592 239.23 95.7476C238.755 95.9021 238.285 95.9034 237.822 95.7513C237.359 95.6029 236.941 95.3206 236.567 94.9045C236.192 94.4884 235.901 93.9579 235.691 93.313C235.416 92.4665 235.372 91.7061 235.559 91.0319C235.746 90.3577 236.169 89.8321 236.827 89.455L237.523 90.5671C237.114 90.8275 236.85 91.1543 236.73 91.5475C236.612 91.9443 236.638 92.4039 236.808 92.9262C237.001 93.5206 237.281 93.9516 237.646 94.2191C238.017 94.489 238.38 94.5661 238.737 94.4502C239.025 94.3565 239.234 94.1773 239.363 93.9123C239.495 93.6462 239.542 93.2884 239.504 92.8389L239.379 91.3502C239.312 90.5315 239.41 89.8824 239.672 89.4029C239.939 88.9258 240.359 88.5941 240.932 88.408C241.4 88.2559 241.857 88.2528 242.303 88.3987C242.75 88.5482 243.15 88.8184 243.504 89.2092C243.859 89.6036 244.132 90.0926 244.321 90.6762C244.588 91.4975 244.618 92.2009 244.41 92.7863C244.203 93.3753 243.836 93.8648 243.31 94.2549Z" fill="black"/>
<path d="M238.91 105.311C238.739 104.51 238.782 103.781 239.037 103.123C239.292 102.464 239.718 101.909 240.315 101.457C240.912 101.005 241.637 100.688 242.489 100.507C243.356 100.323 244.155 100.319 244.886 100.497C245.621 100.677 246.237 101.015 246.734 101.51C247.234 102.008 247.567 102.642 247.73 103.412C247.858 104.013 247.862 104.577 247.742 105.106C247.622 105.635 247.395 106.096 247.06 106.488C246.725 106.881 246.299 107.171 245.781 107.358L245.502 106.047C245.87 105.864 246.167 105.569 246.394 105.16C246.625 104.755 246.68 104.263 246.557 103.685C246.448 103.174 246.22 102.754 245.871 102.425C245.527 102.099 245.091 101.88 244.564 101.768C244.041 101.658 243.457 101.672 242.812 101.809C242.153 101.949 241.601 102.175 241.156 102.486C240.711 102.802 240.395 103.179 240.205 103.618C240.017 104.061 239.978 104.541 240.088 105.06C240.16 105.401 240.285 105.698 240.463 105.95C240.641 106.203 240.861 106.402 241.124 106.548C241.387 106.693 241.683 106.773 242.012 106.789L242.291 108.1C241.771 108.133 241.278 108.046 240.812 107.84C240.351 107.636 239.95 107.32 239.612 106.892C239.277 106.468 239.043 105.94 238.91 105.311Z" fill="black"/>
<path d="M240.696 114.925L249.375 114.013L249.511 115.301L248.2 115.439L248.209 115.53C248.655 115.643 249.034 115.892 249.345 116.279C249.656 116.665 249.839 117.118 249.893 117.638C249.904 117.736 249.915 117.858 249.926 118.006C249.938 118.153 249.944 118.265 249.944 118.341L248.588 118.483C248.595 118.437 248.601 118.332 248.606 118.167C248.616 118.006 248.612 117.837 248.593 117.66C248.549 117.238 248.421 116.871 248.209 116.558C248.001 116.248 247.732 116.014 247.403 115.854C247.078 115.698 246.72 115.64 246.328 115.682L240.836 116.259L240.696 114.925Z" fill="black"/>
<path d="M241.318 128.273C241.318 127.485 241.506 126.794 241.881 126.199C242.256 125.608 242.78 125.146 243.455 124.812C244.129 124.483 244.917 124.318 245.818 124.318C246.727 124.318 247.521 124.483 248.199 124.812C248.877 125.146 249.403 125.608 249.778 126.199C250.153 126.794 250.341 127.485 250.341 128.273C250.341 129.061 250.153 129.75 249.778 130.341C249.403 130.936 248.877 131.398 248.199 131.727C247.521 132.061 246.727 132.227 245.818 132.227C244.917 132.227 244.129 132.061 243.455 131.727C242.78 131.398 242.256 130.936 241.881 130.341C241.506 129.75 241.318 129.061 241.318 128.273ZM242.523 128.273C242.523 128.871 242.676 129.364 242.983 129.75C243.29 130.136 243.693 130.422 244.193 130.608C244.693 130.794 245.235 130.886 245.818 130.886C246.402 130.886 246.945 130.794 247.449 130.608C247.953 130.422 248.36 130.136 248.67 129.75C248.981 129.364 249.136 128.871 249.136 128.273C249.136 127.674 248.981 127.182 248.67 126.795C248.36 126.409 247.953 126.123 247.449 125.938C246.945 125.752 246.402 125.659 245.818 125.659C245.235 125.659 244.693 125.752 244.193 125.938C243.693 126.123 243.29 126.409 242.983 126.795C242.676 127.182 242.523 127.674 242.523 128.273Z" fill="black"/>
<path d="M252.394 142.093L240.822 140.877L240.962 139.543L252.534 140.76L252.394 142.093Z" fill="black"/>
<path d="M250.295 154.969L238.913 152.55L239.191 151.238L250.573 153.658L250.295 154.969Z" fill="black"/>
<path d="M231.759 173.951C232.054 173.287 232.483 172.775 233.046 172.416C233.611 172.058 234.266 171.873 235.01 171.86C235.757 171.848 236.553 172.031 237.397 172.407C238.235 172.779 238.897 173.247 239.385 173.808C239.873 174.369 240.171 174.981 240.279 175.643C240.387 176.304 240.291 176.971 239.992 177.642C239.761 178.161 239.492 178.533 239.185 178.757C238.88 178.986 238.583 179.131 238.294 179.193C238.007 179.26 237.774 179.308 237.596 179.336L237.549 179.44L241.474 181.187L240.928 182.412L230.298 177.679L230.825 176.496L232.05 177.041L232.114 176.896C232.009 176.741 231.883 176.532 231.735 176.267C231.591 176.004 231.501 175.68 231.465 175.295C231.433 174.911 231.531 174.463 231.759 173.951ZM232.785 174.607C232.566 175.099 232.509 175.571 232.615 176.024C232.723 176.479 232.966 176.896 233.345 177.276C233.726 177.657 234.218 177.982 234.82 178.25C235.416 178.515 235.975 178.66 236.498 178.686C237.025 178.713 237.489 178.613 237.889 178.385C238.292 178.158 238.605 177.796 238.827 177.297C239.058 176.778 239.117 176.286 239.005 175.822C238.895 175.362 238.651 174.945 238.275 174.57C237.901 174.2 237.433 173.89 236.873 173.641C236.305 173.388 235.751 173.245 235.21 173.212C234.671 173.183 234.189 173.279 233.763 173.5C233.339 173.726 233.013 174.095 232.785 174.607Z" fill="black"/>
<path d="M226.317 184.712C226.711 184.03 227.219 183.525 227.841 183.198C228.461 182.873 229.147 182.735 229.897 182.784C230.646 182.836 231.411 183.087 232.191 183.538C232.979 183.992 233.584 184.532 234.006 185.156C234.427 185.784 234.651 186.447 234.681 187.146C234.708 187.849 234.525 188.541 234.131 189.224C233.737 189.906 233.23 190.409 232.61 190.733C231.988 191.061 231.301 191.198 230.549 191.144C229.795 191.094 229.024 190.842 228.237 190.387C227.456 189.936 226.857 189.398 226.44 188.772C226.021 188.15 225.797 187.487 225.77 186.785C225.741 186.085 225.923 185.395 226.317 184.712ZM227.36 185.315C227.061 185.833 226.948 186.336 227.02 186.824C227.093 187.312 227.299 187.761 227.639 188.172C227.979 188.583 228.402 188.934 228.907 189.226C229.413 189.517 229.93 189.709 230.459 189.8C230.988 189.891 231.483 189.847 231.946 189.668C232.408 189.488 232.789 189.14 233.088 188.621C233.387 188.103 233.499 187.599 233.423 187.109C233.347 186.619 233.137 186.168 232.794 185.755C232.45 185.343 232.026 184.99 231.521 184.699C231.016 184.407 230.5 184.217 229.974 184.127C229.449 184.038 228.956 184.084 228.497 184.265C228.039 184.446 227.659 184.796 227.36 185.315Z" fill="black"/>
<path d="M221.856 192.254L230.479 195.232L229.651 196.372L223.137 193.971L223.083 194.044L227.394 199.48L226.552 200.638L220.083 198.213L220.029 198.287L224.308 203.727L223.479 204.867L217.982 197.586L218.757 196.519L225.303 198.916L225.383 198.805L221.081 193.32L221.856 192.254Z" fill="black"/>
<path d="M218.004 205.818L214.103 202.305L215 201.308L221.485 207.148L220.619 208.11L219.605 207.198L219.529 207.282C219.722 207.731 219.778 208.2 219.7 208.69C219.623 209.182 219.365 209.673 218.924 210.163C218.528 210.602 218.092 210.905 217.616 211.072C217.142 211.242 216.641 211.255 216.113 211.111C215.588 210.969 215.05 210.65 214.498 210.153L210.377 206.443L211.274 205.446L215.327 209.096C215.837 209.555 216.353 209.78 216.876 209.771C217.401 209.765 217.871 209.531 218.287 209.069C218.574 208.751 218.761 208.405 218.848 208.03C218.933 207.658 218.908 207.281 218.773 206.9C218.638 206.518 218.381 206.157 218.004 205.818Z" fill="black"/>
<path d="M196.547 227.108L197.321 226.124C197.501 226.242 197.706 226.334 197.936 226.401C198.166 226.472 198.419 226.485 198.695 226.439C198.971 226.394 199.266 226.256 199.582 226.027C200.014 225.713 200.302 225.352 200.445 224.943C200.588 224.54 200.549 224.187 200.328 223.883C200.132 223.614 199.88 223.472 199.57 223.458C199.26 223.444 198.859 223.537 198.367 223.735L197.132 224.239C196.389 224.545 195.748 224.652 195.21 224.561C194.673 224.474 194.225 224.183 193.867 223.69C193.573 223.285 193.427 222.839 193.428 222.351C193.426 221.865 193.566 221.38 193.846 220.896C194.126 220.411 194.54 219.97 195.089 219.571C195.809 219.048 196.518 218.771 197.217 218.741C197.916 218.711 198.547 218.95 199.109 219.46L198.266 220.465C197.892 220.156 197.5 220.006 197.089 220.014C196.675 220.025 196.246 220.191 195.802 220.514C195.296 220.882 194.973 221.28 194.831 221.711C194.689 222.147 194.728 222.516 194.948 222.82C195.127 223.065 195.362 223.208 195.653 223.249C195.947 223.292 196.302 223.227 196.718 223.051L198.095 222.472C198.853 222.155 199.5 222.048 200.038 222.149C200.574 222.256 201.019 222.553 201.373 223.04C201.663 223.438 201.807 223.872 201.806 224.341C201.802 224.812 201.668 225.277 201.406 225.734C201.141 226.194 200.76 226.604 200.263 226.964C199.565 227.472 198.905 227.717 198.284 227.7C197.66 227.686 197.081 227.488 196.547 227.108Z" fill="black"/>
<path d="M184.673 226.34C185.381 225.931 186.088 225.746 186.793 225.785C187.498 225.824 188.158 226.058 188.772 226.486C189.387 226.914 189.912 227.505 190.348 228.26C190.791 229.027 191.041 229.786 191.098 230.536C191.153 231.291 191.022 231.981 190.705 232.606C190.387 233.236 189.886 233.748 189.204 234.142C188.673 234.449 188.137 234.627 187.597 234.677C187.057 234.726 186.548 234.652 186.071 234.455C185.595 234.258 185.187 233.942 184.849 233.508L186.01 232.837C186.297 233.131 186.67 233.322 187.129 233.412C187.586 233.506 188.07 233.406 188.582 233.111C189.035 232.849 189.363 232.502 189.568 232.069C189.772 231.641 189.845 231.159 189.789 230.622C189.732 230.091 189.539 229.54 189.209 228.969C188.872 228.386 188.487 227.93 188.053 227.603C187.616 227.278 187.159 227.093 186.683 227.049C186.204 227.006 185.734 227.118 185.275 227.383C184.973 227.557 184.73 227.768 184.544 228.015C184.359 228.262 184.238 228.533 184.181 228.828C184.124 229.124 184.139 229.43 184.226 229.747L183.065 230.418C182.873 229.934 182.803 229.438 182.856 228.931C182.907 228.429 183.084 227.951 183.386 227.496C183.686 227.047 184.115 226.662 184.673 226.34Z" fill="black"/>
<path d="M176.081 231.01L179.63 238.982L178.447 239.509L177.911 238.305L177.828 238.342C177.858 238.801 177.738 239.238 177.466 239.654C177.195 240.069 176.821 240.383 176.343 240.595C176.253 240.635 176.14 240.684 176.003 240.74C175.867 240.797 175.763 240.837 175.69 240.861L175.136 239.615C175.182 239.607 175.284 239.58 175.442 239.535C175.598 239.494 175.757 239.438 175.92 239.366C176.308 239.193 176.617 238.958 176.85 238.659C177.08 238.366 177.22 238.038 177.27 237.676C177.318 237.319 177.262 236.96 177.102 236.6L174.856 231.555L176.081 231.01Z" fill="black"/>
<path d="M163.579 235.726C164.328 235.483 165.044 235.447 165.725 235.62C166.403 235.794 167.005 236.151 167.53 236.689C168.052 237.228 168.452 237.927 168.73 238.784C169.011 239.649 169.1 240.454 168.996 241.201C168.888 241.949 168.612 242.592 168.166 243.132C167.716 243.672 167.116 244.064 166.367 244.307C165.618 244.551 164.904 244.586 164.226 244.411C163.545 244.239 162.943 243.881 162.42 243.338C161.893 242.796 161.489 242.093 161.208 241.228C160.93 240.371 160.845 239.57 160.954 238.826C161.059 238.082 161.336 237.441 161.786 236.9C162.232 236.361 162.83 235.97 163.579 235.726ZM163.951 236.872C163.382 237.057 162.961 237.355 162.688 237.766C162.416 238.177 162.268 238.649 162.246 239.182C162.224 239.715 162.303 240.259 162.484 240.814C162.664 241.368 162.92 241.857 163.252 242.278C163.585 242.7 163.982 242.999 164.446 243.175C164.909 243.351 165.426 243.347 165.995 243.162C166.564 242.977 166.984 242.677 167.256 242.262C167.527 241.847 167.673 241.372 167.694 240.835C167.715 240.299 167.635 239.753 167.455 239.198C167.275 238.644 167.019 238.157 166.688 237.739C166.357 237.321 165.961 237.025 165.498 236.853C165.036 236.681 164.52 236.687 163.951 236.872Z" fill="black"/>
<path d="M153.858 250.531L151.438 239.149L152.75 238.87L155.169 250.252L153.858 250.531Z" fill="black"/>
<path d="M140.963 252.513L139.747 240.94L141.08 240.8L142.297 252.373L140.963 252.513Z" fill="black"/>
<path d="M117.182 240.75C117.905 240.826 118.525 241.076 119.04 241.5C119.555 241.927 119.933 242.492 120.176 243.196C120.417 243.903 120.49 244.716 120.393 245.635C120.298 246.547 120.058 247.322 119.675 247.959C119.292 248.597 118.802 249.069 118.206 249.376C117.61 249.683 116.947 249.798 116.216 249.721C115.651 249.662 115.215 249.52 114.907 249.298C114.595 249.078 114.364 248.841 114.216 248.585C114.064 248.333 113.946 248.126 113.864 247.965L113.751 247.954L113.302 252.226L111.969 252.085L113.185 240.513L114.473 240.648L114.333 241.982L114.491 241.998C114.606 241.85 114.766 241.665 114.972 241.443C115.178 241.225 115.459 241.039 115.814 240.886C116.168 240.737 116.624 240.691 117.182 240.75ZM116.875 241.929C116.34 241.873 115.874 241.965 115.475 242.205C115.076 242.448 114.755 242.809 114.51 243.286C114.265 243.767 114.109 244.335 114.04 244.99C113.972 245.638 114.006 246.215 114.143 246.721C114.28 247.23 114.519 247.64 114.86 247.95C115.2 248.264 115.641 248.449 116.184 248.506C116.749 248.566 117.235 248.47 117.642 248.22C118.045 247.973 118.367 247.612 118.607 247.139C118.843 246.668 118.993 246.128 119.057 245.518C119.122 244.9 119.087 244.329 118.952 243.804C118.812 243.283 118.572 242.854 118.23 242.517C117.884 242.184 117.433 241.988 116.875 241.929Z" fill="black"/>
<path d="M105.266 238.9C106.037 239.064 106.674 239.391 107.178 239.881C107.678 240.371 108.021 240.98 108.206 241.709C108.389 242.437 108.386 243.242 108.199 244.124C108.01 245.013 107.683 245.755 107.22 246.35C106.753 246.944 106.192 247.363 105.536 247.607C104.876 247.85 104.161 247.889 103.39 247.726C102.619 247.562 101.984 247.235 101.484 246.745C100.98 246.255 100.638 245.644 100.456 244.912C100.271 244.18 100.273 243.369 100.462 242.48C100.65 241.598 100.977 240.862 101.443 240.272C101.905 239.681 102.466 239.263 103.126 239.02C103.782 238.776 104.495 238.736 105.266 238.9ZM105.016 240.078C104.43 239.954 103.917 240.002 103.475 240.221C103.033 240.441 102.67 240.776 102.384 241.227C102.099 241.677 101.895 242.188 101.774 242.758C101.653 243.329 101.63 243.88 101.707 244.411C101.784 244.943 101.979 245.4 102.292 245.785C102.606 246.169 103.055 246.423 103.641 246.547C104.226 246.672 104.74 246.622 105.182 246.399C105.625 246.175 105.989 245.837 106.276 245.382C106.562 244.928 106.766 244.416 106.887 243.845C107.008 243.275 107.03 242.725 106.953 242.198C106.875 241.67 106.679 241.216 106.365 240.836C106.051 240.455 105.601 240.203 105.016 240.078Z" fill="black"/>
<path d="M96.7153 236.988L96.5473 246.11L95.2072 245.674L95.478 238.736L95.3915 238.708L91.5543 244.487L90.1925 244.045L90.4995 237.143L90.4131 237.115L86.5612 242.865L85.2211 242.429L90.4469 234.951L91.7006 235.358L91.4444 242.325L91.5741 242.367L95.4616 236.58L96.7153 236.988Z" fill="black"/>
<path d="M82.625 237.516L84.7603 232.72L85.9853 233.265L82.4356 241.238L81.2522 240.711L81.8068 239.465L81.703 239.419C81.3359 239.741 80.9073 239.94 80.4173 240.016C79.9257 240.096 79.3788 240.001 78.7767 239.733C78.2369 239.493 77.8139 239.172 77.5076 238.77C77.1998 238.372 77.0328 237.899 77.0066 237.353C76.9789 236.81 77.116 236.199 77.418 235.521L79.6735 230.455L80.8985 231L78.68 235.983C78.4011 236.61 78.3465 237.17 78.5162 237.664C78.6843 238.162 79.0521 238.537 79.6196 238.79C80.0107 238.964 80.3979 239.035 80.7814 239.002C81.1614 238.968 81.512 238.828 81.8333 238.581C82.1546 238.335 82.4185 237.98 82.625 237.516Z" fill="black"/>
<path d="M55.7458 223.688L56.9207 224.12C56.864 224.327 56.8397 224.551 56.8479 224.791C56.8508 225.032 56.9167 225.276 57.0455 225.524C57.1742 225.772 57.3965 226.011 57.7121 226.241C58.1442 226.554 58.5766 226.716 59.0094 226.727C59.4369 226.737 59.7608 226.591 59.9813 226.288C60.1772 226.018 60.2339 225.734 60.1513 225.435C60.0687 225.136 59.8569 224.784 59.5158 224.377L58.6548 223.358C58.1348 222.746 57.8348 222.17 57.7546 221.629C57.6722 221.092 57.8102 220.576 58.1687 220.083C58.4626 219.678 58.8417 219.401 59.3062 219.252C59.7676 219.1 60.2719 219.083 60.8192 219.199C61.3665 219.316 61.9144 219.574 62.4629 219.972C63.1831 220.495 63.6656 221.085 63.9104 221.74C64.1552 222.396 64.1223 223.069 63.8115 223.761L62.5948 223.271C62.7729 222.819 62.7945 222.4 62.6598 222.011C62.5221 221.621 62.231 221.265 61.7867 220.942C61.281 220.574 60.8017 220.39 60.3485 220.388C59.8902 220.388 59.5507 220.539 59.3303 220.843C59.1522 221.088 59.0888 221.355 59.1402 221.646C59.1894 221.939 59.3616 222.256 59.657 222.597L60.6334 223.728C61.1686 224.351 61.4711 224.933 61.5407 225.475C61.605 226.018 61.4602 226.534 61.1061 227.021C60.8167 227.419 60.4488 227.69 60.0025 227.834C59.553 227.976 59.0703 227.993 58.5542 227.885C58.035 227.774 57.5272 227.539 57.0308 227.178C56.3321 226.671 55.8949 226.119 55.7191 225.523C55.5403 224.925 55.5492 224.313 55.7458 223.688Z" fill="black"/>
<path d="M52.8072 212.158C53.4153 212.705 53.8096 213.32 53.9902 214.003C54.1708 214.685 54.1525 215.385 53.9352 216.102C53.718 216.818 53.3179 217.501 52.7349 218.148C52.1418 218.807 51.4974 219.279 50.8016 219.565C50.1005 219.851 49.4038 219.94 48.7115 219.831C48.0138 219.723 47.3722 219.405 46.7867 218.878C46.3307 218.468 45.9958 218.013 45.7819 217.515C45.568 217.016 45.4811 216.51 45.5212 215.995C45.5613 215.481 45.7357 214.996 46.0444 214.54L47.0409 215.437C46.8508 215.801 46.7839 216.215 46.8404 216.679C46.8916 217.143 47.1367 217.572 47.5758 217.968C47.9643 218.318 48.3962 218.523 48.8714 218.584C49.3413 218.645 49.8226 218.566 50.3154 218.347C50.8028 218.129 51.267 217.774 51.708 217.285C52.1592 216.783 52.4732 216.276 52.6502 215.763C52.8243 215.247 52.8589 214.755 52.754 214.289C52.6462 213.82 52.3953 213.408 52.0012 213.053C51.7423 212.82 51.4667 212.653 51.1744 212.553C50.8822 212.453 50.5869 212.422 50.2884 212.459C49.99 212.496 49.7033 212.605 49.4285 212.785L48.432 211.888C48.833 211.556 49.2828 211.337 49.7815 211.23C50.2748 211.124 50.7841 211.144 51.3094 211.291C51.8294 211.438 52.3287 211.727 52.8072 212.158Z" fill="black"/>
<path d="M45.7108 205.429L39.2252 211.269L38.3584 210.306L39.338 209.424L39.2771 209.357C38.8498 209.527 38.3968 209.548 37.9181 209.418C37.4394 209.288 37.0252 209.029 36.6754 208.641C36.6095 208.568 36.5286 208.475 36.4325 208.363C36.3365 208.25 36.266 208.163 36.2209 208.102L37.2343 207.19C37.2563 207.231 37.3133 207.32 37.4054 207.456C37.4921 207.592 37.5951 207.726 37.7142 207.858C37.9981 208.174 38.3177 208.396 38.673 208.524C39.023 208.653 39.3781 208.685 39.7382 208.62C40.0929 208.556 40.4166 208.392 40.7094 208.128L44.8136 204.433L45.7108 205.429Z" fill="black"/>
<path d="M37.3618 194.997C37.8249 195.634 38.0795 196.304 38.1257 197.005C38.1696 197.704 38.0168 198.386 37.6673 199.052C37.3155 199.715 36.775 200.311 36.0456 200.841C35.3102 201.375 34.5713 201.709 33.8291 201.84C33.0846 201.969 32.387 201.905 31.7363 201.647C31.0834 201.387 30.5253 200.938 30.0622 200.3C29.5991 199.663 29.3456 198.995 29.3017 198.296C29.2555 197.595 29.4098 196.911 29.7647 196.246C30.1173 195.578 30.6613 194.977 31.3968 194.442C32.1261 193.913 32.8615 193.584 33.6029 193.458C34.3421 193.328 35.0381 193.393 35.6911 193.654C36.3418 193.912 36.8987 194.359 37.3618 194.997ZM36.3873 195.705C36.0355 195.221 35.6219 194.912 35.1466 194.78C34.6713 194.648 34.1768 194.654 33.6632 194.797C33.1496 194.941 32.6569 195.184 32.1849 195.527C31.713 195.87 31.3278 196.265 31.0293 196.711C30.7309 197.157 30.5695 197.628 30.5453 198.123C30.5212 198.618 30.685 199.108 31.0367 199.592C31.3885 200.076 31.8036 200.383 32.282 200.513C32.7604 200.643 33.2579 200.635 33.7746 200.489C34.2912 200.344 34.7855 200.099 35.2575 199.756C35.7294 199.413 36.1131 199.02 36.4085 198.576C36.7039 198.132 36.8621 197.663 36.8833 197.17C36.9044 196.677 36.7391 196.189 36.3873 195.705Z" fill="black"/>
<path d="M20.2776 190.326L30.355 184.508L31.0255 185.669L20.9481 191.487L20.2776 190.326Z" fill="black"/>
<path d="M14.4079 178.675L25.0383 173.942L25.5837 175.167L14.9533 179.9L14.4079 178.675Z" fill="black"/>
<path d="M18.2464 152.423C18.3976 153.134 18.3514 153.801 18.1078 154.422C17.8604 155.044 17.4397 155.578 16.8456 156.026C16.2477 156.474 15.4968 156.795 14.5927 156.987C13.6961 157.178 12.8853 157.189 12.1605 157.022C11.4356 156.855 10.8352 156.535 10.3592 156.063C9.88327 155.591 9.5689 154.996 9.41612 154.277C9.29798 153.721 9.29729 153.262 9.41403 152.901C9.52627 152.536 9.68099 152.244 9.87819 152.023C10.0709 151.801 10.2311 151.625 10.3588 151.497L10.3352 151.386L6.13362 152.279L5.85483 150.968L17.2369 148.548L17.5062 149.815L16.1946 150.094L16.2277 150.25C16.4038 150.313 16.6293 150.408 16.9042 150.536C17.1755 150.664 17.4388 150.873 17.6941 151.164C17.9457 151.455 18.1298 151.875 18.2464 152.423ZM17.0304 152.496C16.9185 151.97 16.6869 151.554 16.3356 151.249C15.9805 150.945 15.5384 150.751 15.0091 150.666C14.4762 150.581 13.8874 150.608 13.2427 150.745C12.6054 150.88 12.0675 151.092 11.6289 151.378C11.1866 151.666 10.8707 152.02 10.6811 152.44C10.4878 152.86 10.4479 153.337 10.5613 153.871C10.6794 154.426 10.9205 154.859 11.2845 155.169C11.6441 155.476 12.0862 155.671 12.611 155.753C13.1312 155.832 13.6915 155.808 14.2917 155.68C14.8993 155.551 15.4317 155.341 15.8888 155.05C16.3414 154.756 16.6751 154.395 16.8898 153.966C17.1001 153.534 17.1469 153.044 17.0304 152.496Z" fill="black"/>
<path d="M16.3236 140.519C16.406 141.302 16.2918 142.009 15.981 142.64C15.6698 143.267 15.1963 143.781 14.5606 144.183C13.9245 144.582 13.1582 144.828 12.2616 144.922C11.3575 145.017 10.5511 144.936 9.84231 144.679C9.13316 144.419 8.56122 144.014 8.12651 143.466C7.6914 142.913 7.43267 142.245 7.35031 141.462C7.26796 140.678 7.38237 139.973 7.69355 139.346C8.00433 138.716 8.47965 138.201 9.11952 137.802C9.759 137.4 10.5308 137.151 11.4349 137.056C12.3315 136.962 13.1325 137.045 13.8379 137.306C14.5428 137.564 15.1129 137.968 15.548 138.521C15.9827 139.069 16.2413 139.735 16.3236 140.519ZM15.1257 140.645C15.0631 140.049 14.8591 139.576 14.5135 139.224C14.168 138.871 13.7369 138.629 13.2203 138.497C12.7036 138.364 12.1552 138.329 11.5751 138.39C10.9949 138.451 10.464 138.6 9.98242 138.837C9.50079 139.074 9.12572 139.401 8.8572 139.818C8.58868 140.235 8.4857 140.741 8.54826 141.336C8.61082 141.931 8.81674 142.405 9.16603 142.756C9.51532 143.108 9.95018 143.35 10.4706 143.482C10.991 143.614 11.5413 143.649 12.1215 143.588C12.7016 143.527 13.2306 143.379 13.7085 143.142C14.1863 142.905 14.5576 142.578 14.8224 142.162C15.0871 141.746 15.1882 141.24 15.1257 140.645Z" fill="black"/>
<path d="M15.5 131.795L6.77273 134.455V133.045L13.4545 131.159V131.068L6.77273 129.205V127.773L13.4318 125.932V125.841L6.77273 123.955L6.77273 122.545L15.5 125.205V126.523L8.79545 128.432V128.568L15.5 130.477V131.795Z" fill="black"/>
<path d="M10.6436 118.558L15.8648 119.107L15.7247 120.44L7.04521 119.528L7.18062 118.24L8.53679 118.382L8.54866 118.269C8.12929 118.02 7.80765 117.673 7.58374 117.231C7.35606 116.788 7.27666 116.239 7.34556 115.583C7.40732 114.996 7.58192 114.494 7.86934 114.079C8.15299 113.663 8.55067 113.358 9.06236 113.164C9.57029 112.97 10.1934 112.912 10.9318 112.989L16.4469 113.569L16.3067 114.903L10.882 114.333C10.2002 114.261 9.65042 114.382 9.23272 114.696C8.81125 115.01 8.56805 115.476 8.50312 116.093C8.45838 116.519 8.51068 116.909 8.66003 117.264C8.80978 117.615 9.05161 117.905 9.38553 118.134C9.71944 118.364 10.1388 118.505 10.6436 118.558Z" fill="black"/>
<path d="M15.4883 88.7215L15.4403 89.9724C15.226 89.9824 15.0059 90.0284 14.7802 90.1104C14.552 90.1876 14.3398 90.3258 14.1437 90.5249C13.9475 90.724 13.7892 91.0091 13.6686 91.3802C13.5036 91.8881 13.4831 92.3495 13.6072 92.7642C13.7289 93.1741 13.9681 93.4371 14.3248 93.5529C14.6418 93.6559 14.9296 93.622 15.1882 93.4511C15.4469 93.2803 15.717 92.9698 15.9987 92.5196L16.7016 91.3859C17.1229 90.7023 17.5782 90.2389 18.0674 89.9956C18.5531 89.7511 19.086 89.7231 19.666 89.9116C20.1415 90.0661 20.5221 90.3411 20.8078 90.7366C21.0947 91.1286 21.2672 91.6028 21.3253 92.1594C21.3834 92.7159 21.3077 93.3167 21.0982 93.9615C20.8231 94.8081 20.4117 95.4491 19.864 95.8845C19.3163 96.3198 18.6654 96.4967 17.9113 96.415L18.002 95.1062C18.4862 95.1361 18.892 95.027 19.2196 94.7789C19.5483 94.5273 19.7975 94.1403 19.9672 93.6179C20.1603 93.0235 20.1876 92.5106 20.049 92.0792C19.9079 91.6431 19.659 91.3671 19.3024 91.2512C19.0142 91.1575 18.74 91.18 18.48 91.3185C18.2163 91.4559 17.9679 91.7177 17.7349 92.104L16.9612 93.382C16.5341 94.0836 16.0734 94.5513 15.5793 94.785C15.0827 95.014 14.548 95.0354 13.9752 94.8493C13.5069 94.6971 13.1354 94.431 12.8606 94.051C12.5869 93.6673 12.4218 93.2134 12.3651 92.6892C12.3096 92.1613 12.3766 91.6056 12.5662 91.022C12.8331 90.2006 13.2228 89.6143 13.7352 89.2631C14.2488 88.9082 14.8332 88.7277 15.4883 88.7215Z" fill="black"/>
<path d="M25.5464 82.3636C25.2136 83.111 24.7506 83.6761 24.1573 84.0587C23.564 84.4414 22.8929 84.6402 22.1441 84.6551C21.3952 84.67 20.6229 84.5003 19.827 84.1459C19.0172 83.7854 18.3689 83.3184 17.882 82.7451C17.3932 82.1667 17.0934 81.5315 16.9827 80.8395C16.8701 80.1426 16.974 79.4342 17.2945 78.7144C17.5441 78.1539 17.8728 77.6949 18.2807 77.3375C18.6886 76.98 19.1434 76.7409 19.645 76.6201C20.1466 76.4993 20.6619 76.5152 21.1911 76.6678L20.6457 77.8928C20.2407 77.8245 19.8265 77.8888 19.4029 78.0859C18.9774 78.2779 18.6445 78.6438 18.4041 79.1836C18.1915 79.6612 18.1297 80.1353 18.2186 80.6061C18.3056 81.0719 18.5293 81.5053 18.8898 81.9063C19.2484 82.3023 19.7287 82.6344 20.3309 82.9024C20.9468 83.1767 21.5263 83.3186 22.0694 83.3282C22.6139 83.3343 23.0919 83.2154 23.5032 82.9714C23.916 82.724 24.2303 82.3581 24.446 81.8736C24.5877 81.5553 24.661 81.2417 24.6658 80.9328C24.6706 80.624 24.6093 80.3334 24.4818 80.061C24.3543 79.7886 24.1621 79.5497 23.9054 79.3441L24.4508 78.1192C24.8906 78.3979 25.2382 78.7579 25.4937 79.1992C25.7472 79.6355 25.8853 80.1262 25.9081 80.6712C25.9289 81.2112 25.8083 81.7753 25.5464 82.3636Z" fill="black"/>
<path d="M29.7528 73.5352L22.1947 69.1716L22.8424 68.0497L23.984 68.7088L24.0295 68.63C23.7351 68.2764 23.5756 67.8519 23.551 67.3565C23.5264 66.8612 23.6448 66.3872 23.9062 65.9345C23.9554 65.8492 24.0186 65.7436 24.0958 65.6175C24.1729 65.4915 24.2337 65.3976 24.2781 65.3357L25.4591 66.0176C25.4265 66.0512 25.3597 66.1329 25.2585 66.2626C25.156 66.3871 25.0603 66.5265 24.9712 66.6807C24.7591 67.0481 24.6468 67.4206 24.6343 67.7983C24.6205 68.1708 24.6997 68.5184 24.8721 68.841C25.0431 69.1584 25.2992 69.4156 25.6404 69.6126L30.4232 72.374L29.7528 73.5352Z" fill="black"/>
<path d="M37.0946 62.371C36.6315 63.0084 36.0735 63.4575 35.4205 63.7182C34.7698 63.9758 34.0738 64.0413 33.3324 63.9147C32.5932 63.785 31.8589 63.4552 31.1296 62.9253C30.3941 62.3909 29.849 61.7912 29.4941 61.126C29.1415 60.4578 28.9872 59.7745 29.0311 59.076C29.0773 58.3745 29.3319 57.705 29.795 57.0676C30.2581 56.4302 30.8151 55.9826 31.4658 55.725C32.1187 55.4643 32.8163 55.3999 33.5585 55.5318C34.303 55.6607 35.043 55.9923 35.7784 56.5267C36.5078 57.0566 37.0472 57.6545 37.3968 58.3205C37.7485 58.9834 37.9013 59.6656 37.8552 60.3672C37.8112 61.0656 37.5577 61.7336 37.0946 62.371ZM36.1201 61.663C36.4719 61.1788 36.6372 60.6902 36.6161 60.1973C36.595 59.7044 36.4367 59.2359 36.1413 58.7919C35.8459 58.3478 35.4622 57.9544 34.9903 57.6115C34.5183 57.2686 34.024 57.0242 33.5074 56.8782C32.9907 56.7323 32.4932 56.7243 32.0148 56.8543C31.5364 56.9843 31.1213 57.2914 30.7695 57.7756C30.4178 58.2598 30.254 58.7494 30.2782 59.2446C30.3023 59.7397 30.4637 60.2104 30.7621 60.6567C31.0606 61.103 31.4458 61.4976 31.9178 61.8404C32.3897 62.1833 32.8824 62.4266 33.396 62.5704C33.9097 62.7141 34.4041 62.7198 34.8794 62.5876C35.3548 62.4554 35.7683 62.1472 36.1201 61.663Z" fill="black"/>
<path d="M36.2573 44.6798L44.9048 52.466L44.0076 53.4625L35.3601 45.6762L36.2573 44.6798Z" fill="black"/>
<path d="M45.5243 35.4969L53.3105 44.1445L52.314 45.0417L44.5278 36.3942L45.5243 35.4969Z" fill="black"/>
<path d="M71.6776 31.0352C71.0477 31.3989 70.3998 31.5608 69.7339 31.521C69.0661 31.4779 68.4275 31.243 67.8181 30.8163C67.2068 30.3863 66.6701 29.7711 66.208 28.9707C65.7496 28.1768 65.488 27.4094 65.4232 26.6682C65.3584 25.9271 65.4768 25.2573 65.7786 24.6588C66.0804 24.0603 66.5495 23.5774 67.1859 23.2099C67.6779 22.9259 68.114 22.7834 68.4941 22.7827C68.8756 22.7768 69.2014 22.8336 69.4717 22.9531C69.7433 23.0675 69.9596 23.1656 70.1206 23.2476L70.219 23.1908L68.0713 19.4708L69.2326 18.8004L75.0508 28.8778L73.9289 29.5255L73.2584 28.3642L73.1206 28.4438C73.1149 28.6308 73.0939 28.8747 73.0576 29.1756C73.0195 29.4732 72.9018 29.7882 72.7045 30.1208C72.5054 30.4501 72.1631 30.7549 71.6776 31.0352ZM71.2328 29.9011C71.6986 29.6322 72.0221 29.2836 72.2035 28.8552C72.3829 28.4236 72.4313 27.9429 72.3486 27.4133C72.264 26.8805 72.0569 26.3286 71.7274 25.7578C71.4016 25.1936 71.0346 24.7473 70.6262 24.4188C70.216 24.087 69.7819 23.8959 69.3241 23.8453C68.8644 23.7914 68.3983 23.9008 67.9259 24.1736C67.4339 24.4577 67.0967 24.8207 66.9145 25.2627C66.7337 25.6995 66.6853 26.1801 66.7694 26.7045C66.8549 27.2238 67.0511 27.7491 67.3579 28.2806C67.6685 28.8185 68.0327 29.26 68.4505 29.6049C68.8697 29.9446 69.3165 30.1502 69.7909 30.2219C70.2666 30.2884 70.7473 30.1814 71.2328 29.9011Z" fill="black"/>
<path d="M82.4051 25.5279C81.6853 25.8483 80.9775 25.9582 80.2817 25.8575C79.5894 25.7553 78.9538 25.464 78.3751 24.9836C77.7998 24.5017 77.3288 23.849 76.9621 23.0254C76.5923 22.1949 76.4201 21.4029 76.4454 20.6495C76.4741 19.8945 76.6821 19.2255 77.0694 18.6426C77.4602 18.0581 78.0154 17.6057 78.7352 17.2852C79.455 16.9648 80.161 16.8556 80.8534 16.9579C81.5492 17.0586 82.1855 17.3516 82.7623 17.837C83.3426 18.3208 83.8177 18.978 84.1874 19.8085C84.5541 20.6321 84.7223 21.4196 84.692 22.1711C84.6652 22.9211 84.4564 23.5884 84.0657 24.1728C83.6784 24.7557 83.1248 25.2074 82.4051 25.5279ZM81.9151 24.4275C82.4619 24.1841 82.8493 23.8436 83.0775 23.4062C83.3057 22.9687 83.4028 22.4839 83.369 21.9516C83.3352 21.4194 83.1997 20.8868 82.9624 20.3539C82.7252 19.821 82.4193 19.3622 82.0448 18.9774C81.6704 18.5927 81.2435 18.337 80.7642 18.2104C80.2849 18.0838 79.7719 18.1422 79.2251 18.3856C78.6784 18.6291 78.2917 18.9712 78.0651 19.4121C77.8384 19.853 77.7428 20.3413 77.7782 20.8771C77.8135 21.4128 77.9498 21.9471 78.1871 22.48C78.4243 23.0129 78.7294 23.47 79.1024 23.8513C79.4753 24.2326 79.9006 24.4848 80.3784 24.6079C80.8561 24.7311 81.3684 24.6709 81.9151 24.4275Z" fill="black"/>
<path d="M90.4469 22.049L85.2211 14.5706L86.5612 14.1351L90.4201 19.907L90.5065 19.8789L90.2142 12.9482L91.5759 12.5058L95.3845 18.2701L95.4709 18.242L95.2072 11.3259L96.5473 10.8904L96.7153 20.0123L95.4616 20.4196L91.5741 14.6332L91.4444 14.6753L91.7006 21.6416L90.4469 22.049Z" fill="black"/>
<path d="M101.536 13.3397L102.627 18.4749L101.316 18.7537L99.5012 10.2172L100.768 9.94782L101.052 11.2817L101.163 11.258C101.271 10.782 101.501 10.3691 101.852 10.0195C102.203 9.66606 102.701 9.42084 103.346 9.28381C103.924 9.16095 104.455 9.17202 104.939 9.317C105.422 9.45828 105.834 9.7423 106.177 10.1691C106.518 10.5921 106.766 11.1668 106.921 11.893L108.074 17.3172L106.762 17.596L105.628 12.2607C105.486 11.5901 105.2 11.1046 104.773 10.8045C104.344 10.5006 103.826 10.4132 103.218 10.5424C102.8 10.6314 102.445 10.8017 102.153 11.0533C101.866 11.3042 101.665 11.6238 101.55 12.0123C101.435 12.4007 101.43 12.8432 101.536 13.3397Z" fill="black"/>
</svg>
