<?xml version="1.0" encoding="UTF-8"?>
<svg id="Layer_2" data-name="Layer 2" xmlns="http://www.w3.org/2000/svg" viewBox="0 0 13.99 20">
  <defs>
    <style>
      .cls-1 {
        fill: #fbbc04;
      }

      .cls-2 {
        fill: #4285f4;
      }

      .cls-3 {
        fill: #34a853;
      }

      .cls-4 {
        fill: #ea4335;
      }
    </style>
  </defs>
  <g id="Layer_1-2" data-name="Layer 1">
    <path class="cls-2" d="M7,13c1.66,0,3-1.31,3-2.97V3.01c0-1.66-1.34-3.01-3-3.01s-3,1.34-3,3.01v7.02c0,1.66,1.34,2.97,3,2.97Z"/>
    <path class="cls-3" d="M6,16.08h2v3.92h-2v-3.92Z"/>
    <path class="cls-1" d="M2.05,14.87c-1.27-1.33-2.05-2.83-2.05-4.87H2c0,1.45,.56,2.42,1.47,3.38v.32l-1.15,1.18h-.27Z"/>
    <path class="cls-4" d="M7,14.93c-1.33,0-2.6-.55-3.54-1.55l-1.41,1.49c1.26,1.34,3.02,2.13,4.95,2.13,3.87,0,6.99-2.92,6.99-7h-1.99c0,2.92-2.24,4.93-5,4.93Z"/>
  </g>
</svg>